<svg xmlns="http://www.w3.org/2000/svg" id="Layer_1" x="0" y="0" version="1.1" viewBox="0 0 512 512" xml:space="preserve"><style>.st0{fill:#2d527c}.st1{fill:#cee8fa}.st2{fill:#f0bf5f}</style><path d="M303.6 453.1H162.3C91 453.1 33 395.1 33 323.8V201.2a14.4 14.4 0 0128.8 0v122.7c0 55.4 45 100.4 100.4 100.4h141.3c8 0 14.4 6.5 14.4 14.4.1 8-6.3 14.4-14.3 14.4zm84.1-6.4a14.5 14.5 0 01-4.8-28.1 100.6 100.6 0 0067.2-94.8v-14.5a14.4 14.4 0 0128.8 0v14.5c0 54.8-34.7 103.9-86.5 122-1.5.6-3.1.9-4.7.9z" class="st0"/><path d="M468.7 248.8H43.3a28.8 28.8 0 010-57.6h425.5a28.8 28.8 0 11-.1 57.6z" class="st1"/><path d="M468.7 263.2H43.3a43.3 43.3 0 010-86.6h425.5a43.3 43.3 0 11-.1 86.6zM43.3 205.5a14.4 14.4 0 000 28.8h425.5a14.4 14.4 0 000-28.8H43.3z" class="st0"/><circle cx="113.9" cy="455" r="25.2" class="st1"/><path d="M113.9 494.7a39.7 39.7 0 110-79.5 39.7 39.7 0 010 79.5zm0-50.5a10.8 10.8 0 000 21.6 10.8 10.8 0 000-21.6z" class="st0"/><circle cx="398.1" cy="455" r="25.2" class="st1"/><path d="M398.1 494.7a39.7 39.7 0 110-79.5 39.7 39.7 0 010 79.5zm0-50.5a10.8 10.8 0 000 21.6c5.9 0 10.8-4.9 10.8-10.8s-4.9-10.8-10.8-10.8z" class="st0"/><path d="M323.4 88.7H188.6a14.4 14.4 0 010-28.8h134.9a14.4 14.4 0 11-.1 28.8z" class="st2"/><path d="M328.1 116.8c-8 0-14.4-6.5-14.4-14.4V31.7a14.4 14.4 0 0128.8 0v70.7c0 8-6.4 14.4-14.4 14.4z" class="st2"/><path d="M354.1 46.2h-51.9a14.4 14.4 0 010-28.8h51.9a14.4 14.4 0 010 28.8zm-170.2 70.6c-8 0-14.4-6.5-14.4-14.4V31.7a14.4 14.4 0 0128.8 0v70.7c0 8-6.4 14.4-14.4 14.4z" class="st2"/><path d="M209.8 46.2h-51.9a14.4 14.4 0 010-28.8h51.9a14.4 14.4 0 010 28.8zM256 150c-8 0-14.4-6.5-14.4-14.4V75.7a14.4 14.4 0 0128.8 0v59.9c0 7.9-6.4 14.4-14.4 14.4z" class="st2"/><path d="M195.7 334.8H118c-9.8 0-17.8-8-17.8-17.8V191h113.2v126c0 9.9-7.9 17.8-17.7 17.8z" class="st1"/><path d="M195.7 349.3H118a32.2 32.2 0 01-32.2-32.2v-126c0-8 6.5-14.4 14.4-14.4h113.2c8 0 14.4 6.5 14.4 14.4v126a32.2 32.2 0 01-32.1 32.2zm-81-143.8v111.6c0 1.8 1.5 3.3 3.3 3.3h77.7c1.8 0 3.3-1.5 3.3-3.3V205.5h-84.3z" class="st0"/></svg>