<svg xmlns="http://www.w3.org/2000/svg" id="Layer_1" x="0" y="0" version="1.1" viewBox="0 0 512 512" xml:space="preserve"><style>.st0{fill:#cee8fa}.st1{fill:#2d527c}.st2{fill:#f0bf5f}</style><path d="M312 380.7H84.6V272a69.7 69.7 0 0169.7-69.7H312v178.4z" class="st0"/><path d="M312 395.2H84.6c-8 0-14.5-6.5-14.5-14.5V272a84.3 84.3 0 0184.2-84.2H312c8 0 14.5 6.5 14.5 14.5v178.4c0 8-6.5 14.5-14.5 14.5zm-212.9-29h198.3V216.9H154.2A55.1 55.1 0 0099.1 272v94.2z" class="st1"/><path d="M461.9 265.8H50.1A50.2 50.2 0 010 215.6v-45.1a50.2 50.2 0 0150.1-50.1h103.7a14.5 14.5 0 010 29H50.1A21.2 21.2 0 0029 170.5v45.1c0 11.6 9.5 21.1 21.1 21.1h411.7c11.6 0 21.1-9.5 21.1-21.1v-45.1c0-11.6-9.5-21.1-21.1-21.1H256a14.5 14.5 0 010-29h205.9a50.2 50.2 0 0150.1 50.1v45.1a50.2 50.2 0 01-50.1 50.2z" class="st2"/><path d="M256 148.6a14.5 14.5 0 01-8.7-26.2c13.7-10.2 42.1-37 42.1-54.9A32.3 32.3 0 00256 34.1c-18.4 0-33.4 15-33.4 33.4a14.5 14.5 0 01-29 0v-1.3l.1-1.2A62.3 62.3 0 01256 5a61.2 61.2 0 0162.5 62.5c0 37.4-48.3 74.2-53.9 78.3a14.5 14.5 0 01-8.6 2.8z" class="st2"/><path d="M363.3 475.2H171c-8 0-14.5-6.5-14.5-14.5v-79.9c0-8 6.5-14.5 14.5-14.5h256.5a14.5 14.5 0 010 29h-242v50.9h177.8a14.5 14.5 0 010 29z" class="st1"/><path d="M427.4 380.7V260.4a58 58 0 00-58.1-58.1H171v178.4h256.4z" class="st0"/><path d="M427.4 395.2H171c-8 0-14.5-6.5-14.5-14.5V202.4c0-8 6.5-14.5 14.5-14.5h198.4c40 0 72.6 32.6 72.6 72.6v120.3c0 7.9-6.6 14.4-14.6 14.4zm-241.9-29h227.4V260.4c0-24-19.5-43.5-43.5-43.5H185.5v149.3zM171 507c-8 0-14.5-6.5-14.5-14.5v-31.8a14.5 14.5 0 0129 0v31.8c0 8-6.5 14.5-14.5 14.5z" class="st1"/><path d="M427.4 507c-8 0-14.5-6.5-14.5-14.5V371.4a14.5 14.5 0 0129 0v121.1c.1 8-6.5 14.5-14.5 14.5zm-64.1 0c-8 0-14.5-6.5-14.5-14.5v-31.8a14.5 14.5 0 0129 0v31.8c0 8-6.5 14.5-14.5 14.5zm-64.1 0c-8 0-14.5-6.5-14.5-14.5v-31.8a14.5 14.5 0 0129 0v31.8c0 8-6.5 14.5-14.5 14.5zm-64.1 0c-8 0-14.5-6.5-14.5-14.5v-31.8a14.5 14.5 0 0129 0v31.8c0 8-6.5 14.5-14.5 14.5z" class="st1"/></svg>