<svg xmlns="http://www.w3.org/2000/svg" id="Layer_1" x="0" y="0" version="1.1" viewBox="0 0 512 512" xml:space="preserve"><style>.st0{fill:#f0bf5f}</style><path d="M262.3 229.2c-7.9 0-14.4-6.4-14.4-14.4V51.5C248 25.8 270.2 5 297.6 5c27.4 0 49.6 20.9 49.6 46.6a14.4 14.4 0 01-28.8 0c0-9.8-9.4-17.8-20.9-17.8s-20.9 8-20.9 17.8v163.3c.1 7.8-6.3 14.3-14.3 14.3zm164.8 41.6c-7.9 0-14.4-6.4-14.4-14.4V51.5C412.8 25.8 435 5 462.4 5S512 25.8 512 51.5a14.4 14.4 0 01-28.8 0c0-9.8-9.4-17.8-20.9-17.8s-20.9 8-20.9 17.8v204.9c.1 7.9-6.3 14.4-14.3 14.4z" class="st0"/><path d="M340 125h-77.6a14.4 14.4 0 010-28.8H340a14.4 14.4 0 010 28.8zm0 104.2h-77.6a14.4 14.4 0 010-28.8H340a14.4 14.4 0 010 28.8zm87.1-52.1h-77.6a14.4 14.4 0 010-28.8h77.6a14.4 14.4 0 010 28.8z" class="st0"/><path fill="#CEE8FA" d="M471.7 375.1c0 17.2-20.5 31.1-45.9 31.1-25.3 0-45.9-13.9-45.9-31.1 0 17.2-20.5 31.1-45.9 31.1-25.3 0-45.9-13.9-45.9-31.1h.7c0 17.2-20.5 31.1-45.9 31.1S197 392.3 197 375.1c0 17.2-20.5 31.1-45.9 31.1s-45.9-13.9-45.9-31.1h.7c0 17.2-20.5 31.1-45.9 31.1s-45.9-13.9-45.9-31.1v-88c0 17.2 20.5 31.1 45.9 31.1s45.9-13.9 45.9-31.1h-.7c0 17.2 20.5 31.1 45.9 31.1s45.9-13.9 45.9-31.1c0 17.2 20.5 31.1 45.9 31.1s45.9-13.9 45.9-31.1h-.7c0 17.2 20.5 31.1 45.9 31.1s45.9-13.9 45.9-31.1c0 17.2 20.5 31.1 45.9 31.1s45.9-13.9 45.9-31.1v88z"/><path fill="#2d527c" d="M425.8 420.6c-18.6 0-34.9-6-45.9-15.7a69.3 69.3 0 01-45.9 15.7 70 70 0 01-45.5-15.4 70 70 0 01-45.5 15.4c-18.6 0-34.9-6-45.9-15.7a69.3 69.3 0 01-45.9 15.7 70 70 0 01-45.5-15.4 69.4 69.4 0 01-45.5 15.4c-33.8 0-60.2-20-60.2-45.5v-88a14.4 14.4 0 0128.8 0c0 7.7 13.8 16.7 31.5 16.7 16 0 28.3-6.9 31-13.9l-.1-2.8c0-7.9 6.4-14.4 14.4-14.4h.7c7.9 0 14.4 6.4 14.4 14.4l-.1 2.8c2.7 7 15 13.9 31 13.9 17.7 0 31.5-9 31.5-16.7a14.4 14.4 0 0128.8 0c0 7.7 13.8 16.7 31.5 16.7 16 0 28.3-6.9 31-13.9l-.1-2.8c0-7.9 6.4-14.4 14.4-14.4h.7c7.9 0 14.4 6.4 14.4 14.4l-.1 2.8c2.7 7 15 13.9 31 13.9 17.7 0 31.5-9 31.5-16.7a14.4 14.4 0 0128.8 0c0 7.7 13.8 16.7 31.5 16.7s31.5-9 31.5-16.7a14.4 14.4 0 0128.8 0v88c-.7 25.5-27.2 45.5-61 45.5zm-31.5-45.5c0 7.7 13.8 16.7 31.5 16.7s31.5-9 31.5-16.7V326a77 77 0 01-31.5 6.5c-18.6 0-34.9-6-45.9-15.7a69.3 69.3 0 01-45.9 15.7 70 70 0 01-45.5-15.4 69.4 69.4 0 01-45.5 15.4c-18.6 0-34.9-6-45.9-15.7a69.3 69.3 0 01-45.9 15.7 70 70 0 01-45.5-15.4 69.4 69.4 0 01-45.5 15.4 77 77 0 01-31.5-6.5v49.1c0 7.7 13.8 16.7 31.5 16.7 16 0 28.3-6.9 31-13.9l-.1-2.8c0-7.9 6.4-14.4 14.4-14.4h.7c7.9 0 14.4 6.4 14.4 14.4l-.1 2.8c2.7 7 15 13.9 31 13.9 17.7 0 31.5-9 31.5-16.7a14.4 14.4 0 0128.8 0c0 7.7 13.8 16.7 31.5 16.7 16 0 28.3-6.9 31-13.9l-.1-2.8c0-7.9 6.4-14.4 14.4-14.4h.7c7.9 0 14.4 6.4 14.4 14.4l-.1 2.8c2.7 7 15 13.9 31 13.9 17.7 0 31.5-9 31.5-16.7 0-7.9 6.4-14.4 14.4-14.4 7.4.1 13.8 6.5 13.8 14.4zM334.1 507a69.3 69.3 0 01-45.5-15.4 69.7 69.7 0 01-45.5 15.4c-18.6 0-34.9-6-45.9-15.7a69.3 69.3 0 01-45.9 15.7c-33.8 0-60.2-20-60.2-45.5 0-7.9 6.4-14.4 14.4-14.4h.7a14.4 14.4 0 0114.2 16.9c2.5 7.1 15.2 14.3 31.1 14.3 17.7 0 31.5-9 31.5-16.7a14.4 14.4 0 0128.8 0c0 7.7 13.8 16.7 31.5 16.7 15.7 0 28.2-7 30.9-14l-.1-2.8c0-7.9 6.4-14.4 14.4-14.4h.7c7.9 0 14.4 6.4 14.4 14.4l-.1 2.8c2.7 7 15.3 14 30.9 14 17.7 0 31.5-9 31.5-16.7a14.4 14.4 0 0128.8 0c-.4 25.5-26.8 45.4-60.6 45.4z"/></svg>